<svg xmlns="http://www.w3.org/2000/svg" enable-background="new 0 0 32 32" viewBox="0 0 32 32"><path d="M16 8.25c1.06812 0 1.9375-.86945 1.9375-1.9375v-3.875C17.9375 1.36938 17.06812.5 16 .5c-1.06805 0-1.9375.86938-1.9375 1.9375v3.875C14.0625 7.38055 14.93195 8.25 16 8.25zM6.3125 14.0625h-3.875C1.36945 14.0625.5 14.93188.5 16c0 1.06805.86945 1.9375 1.9375 1.9375h3.875C7.38062 17.9375 8.25 17.06805 8.25 16 8.25 14.93188 7.38062 14.0625 6.3125 14.0625zM5.0401 26.9599c.36609.36615.85236.56763 1.36987.56763.51746 0 1.00372-.20148 1.36987-.56763l2.73975-2.73975c.75494-.75494.75494-1.9848 0-2.73975s-1.9848-.75494-2.73975 0L5.0401 24.22015C4.28516 24.9751 4.28516 26.20496 5.0401 26.9599zM14.0625 29.5625c0 1.06805.86945 1.9375 1.9375 1.9375 1.06812 0 1.9375-.86945 1.9375-1.9375v-3.875c0-1.06812-.86938-1.9375-1.9375-1.9375-1.06805 0-1.9375.86938-1.9375 1.9375V29.5625zM21.48047 24.22015l2.73975 2.73975c.36609.36615.85236.56763 1.36987.56763.51746 0 1.00372-.20148 1.36987-.56763.75494-.75494.75494-1.9848 0-2.73975l-2.73975-2.73975c-.75494-.75494-1.9848-.75494-2.73975 0S20.72552 23.46521 21.48047 24.22015zM29.5625 14.0625h-3.875c-1.06805 0-1.9375.86938-1.9375 1.9375 0 1.06805.86945 1.9375 1.9375 1.9375h3.875c1.06812 0 1.9375-.86945 1.9375-1.9375C31.5 14.93188 30.63062 14.0625 29.5625 14.0625zM22.85034 11.08716c.51746 0 1.00372-.20148 1.36987-.56763l2.73975-2.73975c.75494-.75494.75494-1.9848 0-2.73975s-1.9848-.75494-2.73975 0l-2.73975 2.73975c-.75494.75494-.75494 1.9848 0 2.73975C21.84656 10.88568 22.33282 11.08716 22.85034 11.08716z"/></svg>